<?xml version="1.0" encoding="UTF-8"?>
<svg width="17px" height="3px" viewBox="0 0 17 3" version="1.1" xmlns="http://www.w3.org/2000/svg" xmlns:xlink="http://www.w3.org/1999/xlink">
    <!-- Generator: Sketch 60 (88103) - https://sketch.com -->
    <title>menu (3)</title>
    <desc>Created with Sketch.</desc>
    <g id="Symbols" stroke="none" stroke-width="1" fill="none" fill-rule="evenodd">
        <g id="icon/menu" transform="translate(-4.000000, -11.000000)" fill="#FFFFFF" fill-rule="nonzero">
            <g id="menu-(3)" transform="translate(4.000000, 11.000000)">
                <path d="M15.674325,0.450624167 C16.2601103,1.03640956 16.2601103,1.9861607 15.674325,2.57194608 C15.0885396,3.15773147 14.1387884,3.15773147 13.553003,2.57194608 C12.9672177,1.9861607 12.9672177,1.03640956 13.553003,0.450624167 C14.1387884,-0.135161221 15.0885396,-0.135161221 15.674325,0.450624167" id="Path"></path>
                <path d="M9.11752264,0.450624167 C9.70330802,1.03640956 9.70330802,1.9861607 9.11752264,2.57194608 C8.53173725,3.15773147 7.58198611,3.15773147 6.99620072,2.57194608 C6.41041533,1.9861607 6.41041533,1.03640956 6.99620072,0.450624167 C7.58198611,-0.135161221 8.53173725,-0.135161221 9.11752264,0.450624167" id="Path"></path>
                <path d="M2.56068639,0.450624167 C3.14647178,1.03640956 3.14647178,1.9861607 2.56068639,2.57194608 C1.97490101,3.15773147 1.02514987,3.15773147 0.439364477,2.57194608 C-0.146420911,1.9861607 -0.146420911,1.03640956 0.439364477,0.450624167 C1.02514987,-0.135161221 1.97490101,-0.135161221 2.56068639,0.450624167" id="Path"></path>
            </g>
        </g>
    </g>
</svg>