<?xml version="1.0" encoding="UTF-8"?>
<svg width="21px" height="16px" viewBox="0 0 21 16" version="1.1" xmlns="http://www.w3.org/2000/svg" xmlns:xlink="http://www.w3.org/1999/xlink">
    <!-- Generator: Sketch 60 (88103) - https://sketch.com -->
    <title>001-muted</title>
    <desc>Created with Sketch.</desc>
    <g id="Symbols" stroke="none" stroke-width="1" fill="none" fill-rule="evenodd">
        <g id="icon/unmute:hover" transform="translate(-12.000000, -15.000000)" fill="#FFFFFF" fill-rule="nonzero">
            <g id="001-muted" transform="translate(12.000000, 15.000000)">
                <path d="M10.8163872,0.169475098 L5.19784277,4.34168701 L0.660339844,4.34168701 C0.29564209,4.34168701 0,4.6373291 0,5.00202686 L0,10.7393818 C0,11.10404 0.29564209,11.3997217 0.660339844,11.3997217 L5.19788232,11.3997217 L10.8164268,15.5719336 C11.2486772,15.8929277 11.870376,15.5872793 11.870376,15.0417949 L11.870376,0.699574219 C11.870376,0.157333008 11.2510503,-0.153180176 10.8163872,0.169475098 Z M4.75590234,10.079042 L1.32064014,10.079042 L1.32064014,5.66232715 L4.75586279,5.66232715 L4.75586279,10.079042 L4.75590234,10.079042 Z M10.5497358,13.7289067 L6.07654248,10.4071948 L6.07654248,5.33417432 L10.5497358,2.0124624 L10.5497358,13.7289067 Z" id="Shape"></path>
                <path d="M17.9285669,7.87068457 L20.0565967,5.74265479 C20.3144678,5.48478369 20.3144678,5.06669238 20.0565967,4.80882129 C19.7987651,4.5509502 19.3806343,4.5509502 19.1227632,4.80882129 L16.9947334,6.93685107 L14.8667036,4.80882129 C14.6088721,4.5509502 14.1907412,4.5509502 13.9328701,4.80882129 C13.674999,5.06669238 13.674999,5.48478369 13.9328701,5.74265479 L16.0608999,7.87068457 L13.9328701,9.99871436 C13.674999,10.2565854 13.674999,10.6746768 13.9328701,10.9325479 C14.1907017,11.1904189 14.6088325,11.1904585 14.8667036,10.9325479 L16.9947334,8.80451807 L19.1227632,10.9325479 C19.3805947,11.1904189 19.7987256,11.1904585 20.0565967,10.9325479 C20.3144678,10.6746768 20.3144678,10.2565854 20.0565967,9.99871436 L17.9285669,7.87068457 Z" id="Path"></path>
            </g>
        </g>
    </g>
</svg>