<?xml version="1.0" encoding="UTF-8"?>
<svg width="20px" height="17px" viewBox="0 0 20 17" version="1.1" xmlns="http://www.w3.org/2000/svg" xmlns:xlink="http://www.w3.org/1999/xlink">
    <!-- Generator: Sketch 60 (88103) - https://sketch.com -->
    <title>mute</title>
    <desc>Created with Sketch.</desc>
    <g id="Symbols" stroke="none" stroke-width="1" fill="none" fill-rule="evenodd">
        <g id="icon/mute:hover" transform="translate(-12.000000, -15.000000)" fill="#FFFFFF" fill-rule="nonzero">
            <g id="mute" transform="translate(12.000000, 15.000000)">
                <g id="002-loudspeaker">
                    <path d="M11.1652105,0.15052823 L5.36549426,4.4572866 L0.681601435,4.4572866 C0.305203349,4.4572866 0,4.7624512 0,5.13888804 L0,11.061267 C0,11.4377038 0.305203349,11.7428684 0.681601435,11.7428684 L5.3654555,11.7428684 L11.1652105,16.0496268 C11.6114469,16.3809517 12.2531684,16.065478 12.2531684,15.5023923 L12.2531684,0.697762679 C12.2531684,0.13808756 11.6140048,-0.182501914 11.1652105,0.15052823 Z M4.90925885,10.3797043 L1.36324163,10.3797043 L1.36324163,5.82056699 L4.90925885,5.82056699 L4.90925885,10.3797043 Z M10.8899268,14.1472895 L10.8899268,14.1472895 L6.27250048,10.7184703 L6.27250048,5.48180096 L10.8899268,2.05298182 L10.8899268,14.1472895 Z" id="Shape"></path>
                    <path d="M18.3847522,1.90094211 C18.1186536,1.63468852 17.6870282,1.63480478 17.4208134,1.90094211 L14.3821895,4.93952727 C14.1159746,5.20566459 14.1159746,5.63728995 14.3821895,5.90346603 C14.648288,6.16964211 15.0799134,6.16971962 15.3461282,5.90346603 L18.3847522,2.86488086 C18.650967,2.59874354 18.650967,2.16711818 18.3847522,1.90094211 Z" id="Path"></path>
                    <path d="M19.1614608,7.41851483 L14.8641976,7.41851483 C14.4877608,7.41851483 14.1825574,7.72371818 14.1825574,8.10015502 C14.1825574,8.47659187 14.4877608,8.78175646 14.8641976,8.78175646 L19.1614608,8.78175646 C19.5378976,8.78175646 19.8430622,8.47655311 19.8430622,8.10015502 C19.8430622,7.72367943 19.5378589,7.41851483 19.1614608,7.41851483 Z" id="Path"></path>
                    <path d="M18.3847522,13.3353904 L15.3461282,10.2967665 C15.0799909,10.0306292 14.6483656,10.0306292 14.3821895,10.2967665 C14.1160134,10.5629038 14.1159746,10.9945292 14.3821895,11.2607053 L17.4208134,14.2993292 C17.6870282,14.565544 18.1185761,14.565544 18.3847522,14.2993292 C18.650967,14.0331919 18.650967,13.6015665 18.3847522,13.3353904 Z" id="Path"></path>
                </g>
            </g>
        </g>
    </g>
</svg>